<?xml version="1.0" encoding="UTF-8" standalone="no"?>
<svg
   xmlns:dc="http://purl.org/dc/elements/1.1/"
   xmlns:cc="http://creativecommons.org/ns#"
   xmlns:rdf="http://www.w3.org/1999/02/22-rdf-syntax-ns#"
   xmlns:svg="http://www.w3.org/2000/svg"
   xmlns="http://www.w3.org/2000/svg"
   version="1.1"
   id="svg2"
   viewBox="0 0 4655.9743 705.72684"
   height="199.1718mm"
   width="1314.0194mm">
  <defs
     id="defs4">
    <linearGradient
       gradientTransform="scale(1.2219423,0.81836924)"
       id="gradientFill-1"
       x1="0.7414425"
       x2="590.86261"
       y1="3.6658268"
       y2="593.78699"
       gradientUnits="userSpaceOnUse"
       spreadMethod="pad">
      <stop
         offset="0"
         stop-color="rgb(203,206,208)"
         stop-opacity="1"
         id="stop4768" />
      <stop
         offset="1"
         stop-color="rgb(132,131,139)"
         stop-opacity="1"
         id="stop4770" />
    </linearGradient>
    <linearGradient
       gradientTransform="scale(0.9899476,1.0101545)"
       id="gradientFill-2"
       x1="301.02603"
       x2="703.0675"
       y1="151.4006"
       y2="553.44208"
       gradientUnits="userSpaceOnUse"
       spreadMethod="pad">
      <stop
         offset="0"
         stop-color="rgb(39,109,195)"
         stop-opacity="1"
         id="stop4773" />
      <stop
         offset="1"
         stop-color="rgb(22,92,170)"
         stop-opacity="1"
         id="stop4775" />
    </linearGradient>
  </defs>
  <metadata
     id="metadata7">
    <rdf:RDF>
      <cc:Work
         rdf:about="">
        <dc:format>image/svg+xml</dc:format>
        <dc:type
           rdf:resource="http://purl.org/dc/dcmitype/StillImage" />
        <dc:title></dc:title>
      </cc:Work>
    </rdf:RDF>
  </metadata>
  <g
     transform="translate(1274.8327,30.951489)"
     style="opacity:0.15"
     id="layer3">
    <g
       id="flowRoot4795-0"
       style="font-style:normal;font-variant:normal;font-weight:normal;font-stretch:normal;font-size:40px;line-height:125%;font-family:'Noto Sans Mono CJK KR';-inkscape-font-specification:'Noto Sans Mono CJK KR';letter-spacing:0px;word-spacing:0px;display:inline;fill:#1a60b0;fill-opacity:1;stroke:none;stroke-width:1px;stroke-linecap:butt;stroke-linejoin:miter;stroke-opacity:1"
       transform="matrix(1,0,0,1.4392964,98.720557,226.56763)">
      <path
         id="path4948"
         style="font-style:normal;font-variant:normal;font-weight:bold;font-stretch:normal;font-size:360px;line-height:100%;font-family:'DejaVu Sans';-inkscape-font-specification:'DejaVu Sans Bold';text-align:start;letter-spacing:1.25030553px;text-anchor:start;fill:#1a60b0;fill-opacity:1"
         d="m -489.81055,-28.72921 67.67578,0 0,95.800781 97.5586,-95.800781 78.57422,0 -126.38672,124.277343 139.39453,138.164067 -84.72656,0 -104.41407,-103.35938 0,103.35938 -67.67578,0 0,-262.44141 z" />
      <path
         id="path4950"
         style="font-style:normal;font-variant:normal;font-weight:bold;font-stretch:normal;font-size:360px;line-height:100%;font-family:'DejaVu Sans';-inkscape-font-specification:'DejaVu Sans Bold';text-align:start;letter-spacing:1.25030553px;text-anchor:start;fill:#1a60b0;fill-opacity:1"
         d="m -124.86884,77.091102 q -20.91796,0 -31.99218,15.117188 -10.89844,14.94141 -10.89844,43.24219 0,28.30078 10.89844,43.41797 11.07422,14.9414 31.99218,14.9414 20.56641,0 31.464848,-14.9414 10.898438,-15.11719 10.898438,-43.41797 0,-28.30078 -10.898438,-43.24219 -10.898438,-15.117188 -31.464848,-15.117188 z m 0,-45 q 50.800786,0 79.277348,27.421875 28.652344,27.421875 28.652344,75.937503 0,48.51562 -28.652344,75.9375 -28.476562,27.42187 -79.277348,27.42187 -50.97656,0 -79.80468,-27.42187 -28.65235,-27.42188 -28.65235,-75.9375 0,-48.515628 28.65235,-75.937503 28.82812,-27.421875 79.80468,-27.421875 z" />
      <path
         id="path4952"
         style="font-style:normal;font-variant:normal;font-weight:bold;font-stretch:normal;font-size:360px;line-height:100%;font-family:'DejaVu Sans';-inkscape-font-specification:'DejaVu Sans Bold';text-align:start;letter-spacing:1.25030553px;text-anchor:start;fill:#1a60b0;fill-opacity:1"
         d="m 176.44006,90.450477 q -8.26172,-3.867187 -16.52343,-5.625 -8.08594,-1.933594 -16.34766,-1.933594 -24.25781,0 -37.44141,15.644532 -13.007809,15.468745 -13.007809,44.472655 l 0,90.70313 -62.929688,0 0,-196.875004 62.929688,0 0,32.34375 q 12.128909,-19.335938 27.773439,-28.125 15.82031,-8.964844 37.79297,-8.964844 3.16406,0 6.85547,0.351563 3.6914,0.175781 10.72265,1.054687 l 0.17578,56.953125 z" />
      <path
         id="path4954"
         style="font-style:normal;font-variant:normal;font-weight:bold;font-stretch:normal;font-size:360px;line-height:100%;font-family:'DejaVu Sans';-inkscape-font-specification:'DejaVu Sans Bold';text-align:start;letter-spacing:1.25030553px;text-anchor:start;fill:#1a60b0;fill-opacity:1"
         d="m 405.85443,134.74735 0,17.92969 -147.12891,0 q 2.28516,22.14844 15.9961,33.22266 13.71094,11.07421 38.32031,11.07421 19.86328,0 40.60547,-5.80078 20.91797,-5.97656 42.89062,-17.92968 l 0,48.51562 q -22.32421,8.4375 -44.64843,12.65625 -22.32422,4.39453 -44.64844,4.39453 -53.4375,0 -83.14453,-27.07031 -29.53125,-27.24609 -29.53125,-76.28906 0,-48.164065 29.0039,-75.761722 29.17969,-27.597656 80.15625,-27.597656 46.40625,0 74.17969,27.949219 27.94922,27.949219 27.94922,74.707029 z m -64.6875,-20.91797 q 0,-17.929684 -10.54687,-28.828122 -10.3711,-11.074218 -27.2461,-11.074218 -18.28125,0 -29.70703,10.371093 -11.42578,10.195313 -14.23828,29.531247 l 81.73828,0 z" />
      <path
         id="path4956"
         style="font-style:normal;font-variant:normal;font-weight:bold;font-stretch:normal;font-size:360px;line-height:100%;font-family:'DejaVu Sans';-inkscape-font-specification:'DejaVu Sans Bold';text-align:start;letter-spacing:1.25030553px;text-anchor:start;fill:#1a60b0;fill-opacity:1"
         d="m 542.80786,145.11845 q -19.6875,0 -29.70703,6.67968 -9.84375,6.67969 -9.84375,19.6875 0,11.95313 7.91016,18.8086 8.08593,6.67968 22.32422,6.67968 17.7539,0 29.88281,-12.65625 12.1289,-12.83203 12.1289,-31.99218 l 0,-7.20703 -32.69531,0 z m 96.15235,-23.73047 0,112.32422 -63.45704,0 0,-29.17969 q -12.65625,17.92969 -28.47656,26.1914 -15.82031,8.08594 -38.49609,8.08594 -30.58594,0 -49.7461,-17.7539 -18.98437,-17.92969 -18.98437,-46.40625 0,-34.62891 23.73047,-50.80079 23.90625,-16.17187 74.88281,-16.17187 l 37.08984,0 0,-4.92188 q 0,-14.941402 -11.77734,-21.79687 -11.77734,-7.03125 -36.73828,-7.03125 -20.21484,0 -37.61719,4.042968 -17.40234,4.042969 -32.34375,12.128907 l 0,-47.988282 q 20.21485,-4.921875 40.60547,-7.382812 20.39063,-2.636719 40.78125,-2.636719 53.26172,0 76.81641,21.09375 23.73047,20.917969 23.73047,68.203128 z" />
      <path
         id="path4958"
         style="line-height:100%;letter-spacing:1.25030553px;fill:#000000"
         d="m 805.99207,-28.72921 64.86328,0 45.35156,190.72266 45,-190.72266 65.21489,0 45,190.72266 45.3515,-190.72266 64.336,0 -61.875,262.44141 -78.0469,0 -47.63674,-199.511723 -47.10938,199.511723 -78.04687,0 -62.40234,-262.44141 z" />
      <path
         id="path4960"
         style="line-height:100%;letter-spacing:1.25030553px;fill:#000000"
         d="m 1407.887,134.74735 0,17.92969 -147.1289,0 q 2.2851,22.14844 15.9961,33.22266 13.7109,11.07421 38.3203,11.07421 19.8632,0 40.6054,-5.80078 20.918,-5.97656 42.8907,-17.92968 l 0,48.51562 q -22.3243,8.4375 -44.6485,12.65625 -22.3242,4.39453 -44.6484,4.39453 -53.4375,0 -83.1445,-27.07031 -29.5313,-27.24609 -29.5313,-76.28906 0,-48.164065 29.0039,-75.761722 29.1797,-27.597656 80.1563,-27.597656 46.4062,0 74.1796,27.949219 27.9493,27.949219 27.9493,74.707029 z m -64.6875,-20.91797 q 0,-17.929684 -10.5469,-28.828122 -10.3711,-11.074218 -27.2461,-11.074218 -18.2813,0 -29.707,10.371093 -11.4258,10.195313 -14.2383,29.531247 l 81.7383,0 z" />
      <path
         id="path4962"
         style="line-height:100%;letter-spacing:1.25030553px;fill:#000000"
         d="m 1653.1216,134.74735 0,17.92969 -147.1289,0 q 2.2851,22.14844 15.9961,33.22266 13.7109,11.07421 38.3203,11.07421 19.8633,0 40.6055,-5.80078 20.9179,-5.97656 42.8906,-17.92968 l 0,48.51562 q -22.3242,8.4375 -44.6485,12.65625 -22.3242,4.39453 -44.6484,4.39453 -53.4375,0 -83.1445,-27.07031 -29.5313,-27.24609 -29.5313,-76.28906 0,-48.164065 29.0039,-75.761722 29.1797,-27.597656 80.1563,-27.597656 46.4062,0 74.1797,27.949219 27.9492,27.949219 27.9492,74.707029 z m -64.6875,-20.91797 q 0,-17.929684 -10.5469,-28.828122 -10.3711,-11.074218 -27.2461,-11.074218 -18.2812,0 -29.707,10.371093 -11.4258,10.195313 -14.2383,29.531247 l 81.7383,0 z" />
      <path
         id="path4964"
         style="line-height:100%;letter-spacing:1.25030553px;fill:#000000"
         d="m 1701.8328,-39.803429 62.9297,0 0,148.886719 72.4218,-72.246094 73.125,0 -96.1523,90.351564 103.7109,106.52344 -76.289,0 -76.8164,-82.08985 0,82.08985 -62.9297,0 0,-273.515629 z" />
      <path
         id="path4966"
         style="line-height:100%;letter-spacing:1.25030553px;fill:#000000"
         d="m 1942.8489,-39.803429 62.9297,0 0,273.515629 -62.9297,0 0,-273.515629 z" />
      <path
         id="path4968"
         style="line-height:100%;letter-spacing:1.25030553px;fill:#000000"
         d="m 2042.0093,36.837196 62.9297,0 52.9101,133.593754 45,-133.593754 62.9297,0 -82.793,215.507814 q -12.4804,32.87109 -29.1796,45.8789 -16.5235,13.1836 -43.7696,13.1836 l -36.3867,0 0,-41.3086 19.6875,0 q 15.9961,0 23.2031,-5.09765 7.3828,-5.09766 11.4258,-18.28125 l 1.7578,-5.44922 -87.7148,-204.433594 z" />
      <path
         id="path4970"
         style="line-height:100%;letter-spacing:1.25030553px;fill:#000000"
         d="m 2560.252,238.45829 -5.2735,0 q -64.8633,0 -100.8984,-35.85938 -36.0352,-35.85937 -36.0352,-99.84375 0,-63.808589 35.8594,-100.0195266 36.0352,-36.2109374 99.1406,-36.2109374 63.8086,0 99.3164,35.8593749 35.6836,35.8593751 35.6836,100.3710891 0,44.29688 -18.9844,76.28907 -18.8085,31.99218 -54.3164,48.16406 l 52.9102,59.0625 -64.5117,0 -42.8906,-47.8125 z m -7.2071,-222.890625 q -30.9375,0 -47.9883,22.851562 -17.0507,22.851563 -17.0507,64.335933 0,42.1875 16.6992,64.6875 16.6992,22.32422 48.3398,22.32422 31.1133,0 48.1641,-22.85156 17.0508,-22.85156 17.0508,-64.16016 0,-41.48437 -17.0508,-64.335933 -17.0508,-22.851562 -48.1641,-22.851562 z" />
      <path
         id="path4972"
         style="line-height:100%;letter-spacing:1.25030553px;fill:#000000"
         d="m 2735.3501,157.07157 0,-120.234374 63.2812,0 0,19.6875 q 0,15.996094 -0.1757,40.253906 -0.1758,24.082028 -0.1758,32.167968 0,23.73047 1.2305,34.27734 1.2304,10.3711 4.2187,15.11719 3.8672,6.15235 10.0195,9.49219 6.3282,3.33984 14.4141,3.33984 19.6875,0 30.9375,-15.11718 11.25,-15.11719 11.25,-42.01172 l 0,-97.207034 62.9297,0 0,196.875004 -62.9297,0 0,-28.47657 q -14.2383,17.22657 -30.2344,25.48828 -15.8203,8.08594 -34.9804,8.08594 -34.1016,0 -52.0313,-20.91797 -17.7539,-20.91797 -17.7539,-60.82031 z" />
      <path
         id="path4974"
         style="line-height:100%;letter-spacing:1.25030553px;fill:#000000"
         d="m 2995.3503,36.837196 62.9297,0 0,196.875004 -62.9297,0 0,-196.875004 z m 0,-76.640625 62.9297,0 0,51.328125 -62.9297,0 0,-51.328125 z" />
      <path
         id="path4976"
         style="line-height:100%;letter-spacing:1.25030553px;fill:#000000"
         d="m 3110.6826,36.837196 171.7383,0 0,43.945312 -103.7109,107.929692 103.7109,0 0,45 -176.1328,0 0,-43.94532 103.7109,-107.929684 -99.3164,0 0,-45 z" />
    </g>
  </g>
  <g
     transform="translate(1274.8327,30.951489)"
     style="display:inline"
     id="layer1">
    <g
       transform="translate(-1275.7387,-33.951489)"
       id="g4791">
      <path
         style="fill:url(#gradientFill-1);fill-rule:evenodd"
         d="M 361.453,485.937 C 162.329,485.937 0.906,377.828 0.906,244.469 0.906,111.109 162.329,3 361.453,3 560.578,3 722,111.109 722,244.469 722,377.828 560.578,485.937 361.453,485.937 Z M 416.641,97.406 c -151.352,0 -274.047,73.908 -274.047,165.078 0,91.17 122.695,165.078 274.047,165.078 151.351,0 263.046,-50.529 263.046,-165.078 0,-114.513 -111.695,-165.078 -263.046,-165.078 z"
         id="path4777" />
      <path
         style="fill:url(#gradientFill-2);fill-rule:evenodd"
         d="m 550,377 c 0,0 21.822,6.585 34.5,13 4.399,2.226 12.01,6.668 17.5,12.5 5.378,5.712 8,11.5 8,11.5 L 696,559 557,559.062 492,437 c 0,0 -13.31,-22.869 -21.5,-29.5 -6.832,-5.531 -9.745,-7.5 -16.5,-7.5 -4.702,0 -33.026,0 -33.026,0 l 0.026,158.974 -123,0.052 0,-406.088 247,0 c 0,0 112.5,2.029 112.5,109.062 0,107.033 -107.5,115 -107.5,115 z m -53.5,-135.976 -74.463,-0.048 -0.037,69.05 74.5,-0.024 c 0,0 34.5,-0.107 34.5,-35.125 0,-35.722 -34.5,-33.853 -34.5,-33.853 z"
         id="path4779" />
    </g>
    <g
       id="flowRoot4795"
       style="font-style:normal;font-variant:normal;font-weight:normal;font-stretch:normal;font-size:40px;line-height:125%;font-family:'Noto Sans Mono CJK KR';-inkscape-font-specification:'Noto Sans Mono CJK KR';letter-spacing:0px;word-spacing:0px;fill:#1a60b0;fill-opacity:1;stroke:none;stroke-width:1px;stroke-linecap:butt;stroke-linejoin:miter;stroke-opacity:1"
       transform="matrix(1,0,0,1.4392964,74.285723,179.32463)">
      <path
         id="path4917"
         style="font-style:normal;font-variant:normal;font-weight:bold;font-stretch:normal;font-size:360px;line-height:100%;font-family:'DejaVu Sans';-inkscape-font-specification:'DejaVu Sans Bold';text-align:start;letter-spacing:1.25030553px;text-anchor:start;fill:#1a60b0;fill-opacity:1"
         d="m -489.81055,-28.72921 67.67578,0 0,95.800781 97.5586,-95.800781 78.57422,0 -126.38672,124.277343 139.39453,138.164067 -84.72656,0 -104.41407,-103.35938 0,103.35938 -67.67578,0 0,-262.44141 z" />
      <path
         id="path4919"
         style="font-style:normal;font-variant:normal;font-weight:bold;font-stretch:normal;font-size:360px;line-height:100%;font-family:'DejaVu Sans';-inkscape-font-specification:'DejaVu Sans Bold';text-align:start;letter-spacing:1.25030553px;text-anchor:start;fill:#1a60b0;fill-opacity:1"
         d="m -124.86884,77.091102 q -20.91796,0 -31.99218,15.117188 -10.89844,14.94141 -10.89844,43.24219 0,28.30078 10.89844,43.41797 11.07422,14.9414 31.99218,14.9414 20.56641,0 31.464848,-14.9414 10.898438,-15.11719 10.898438,-43.41797 0,-28.30078 -10.898438,-43.24219 -10.898438,-15.117188 -31.464848,-15.117188 z m 0,-45 q 50.800786,0 79.277348,27.421875 28.652344,27.421875 28.652344,75.937503 0,48.51562 -28.652344,75.9375 -28.476562,27.42187 -79.277348,27.42187 -50.97656,0 -79.80468,-27.42187 -28.65235,-27.42188 -28.65235,-75.9375 0,-48.515628 28.65235,-75.937503 28.82812,-27.421875 79.80468,-27.421875 z" />
      <path
         id="path4921"
         style="font-style:normal;font-variant:normal;font-weight:bold;font-stretch:normal;font-size:360px;line-height:100%;font-family:'DejaVu Sans';-inkscape-font-specification:'DejaVu Sans Bold';text-align:start;letter-spacing:1.25030553px;text-anchor:start;fill:#1a60b0;fill-opacity:1"
         d="m 176.44006,90.450477 q -8.26172,-3.867187 -16.52343,-5.625 -8.08594,-1.933594 -16.34766,-1.933594 -24.25781,0 -37.44141,15.644532 -13.007809,15.468745 -13.007809,44.472655 l 0,90.70313 -62.929688,0 0,-196.875004 62.929688,0 0,32.34375 q 12.128909,-19.335938 27.773439,-28.125 15.82031,-8.964844 37.79297,-8.964844 3.16406,0 6.85547,0.351563 3.6914,0.175781 10.72265,1.054687 l 0.17578,56.953125 z" />
      <path
         id="path4923"
         style="font-style:normal;font-variant:normal;font-weight:bold;font-stretch:normal;font-size:360px;line-height:100%;font-family:'DejaVu Sans';-inkscape-font-specification:'DejaVu Sans Bold';text-align:start;letter-spacing:1.25030553px;text-anchor:start;fill:#1a60b0;fill-opacity:1"
         d="m 405.85443,134.74735 0,17.92969 -147.12891,0 q 2.28516,22.14844 15.9961,33.22266 13.71094,11.07421 38.32031,11.07421 19.86328,0 40.60547,-5.80078 20.91797,-5.97656 42.89062,-17.92968 l 0,48.51562 q -22.32421,8.4375 -44.64843,12.65625 -22.32422,4.39453 -44.64844,4.39453 -53.4375,0 -83.14453,-27.07031 -29.53125,-27.24609 -29.53125,-76.28906 0,-48.164065 29.0039,-75.761722 29.17969,-27.597656 80.15625,-27.597656 46.40625,0 74.17969,27.949219 27.94922,27.949219 27.94922,74.707029 z m -64.6875,-20.91797 q 0,-17.929684 -10.54687,-28.828122 -10.3711,-11.074218 -27.2461,-11.074218 -18.28125,0 -29.70703,10.371093 -11.42578,10.195313 -14.23828,29.531247 l 81.73828,0 z" />
      <path
         id="path4925"
         style="font-style:normal;font-variant:normal;font-weight:bold;font-stretch:normal;font-size:360px;line-height:100%;font-family:'DejaVu Sans';-inkscape-font-specification:'DejaVu Sans Bold';text-align:start;letter-spacing:1.25030553px;text-anchor:start;fill:#1a60b0;fill-opacity:1"
         d="m 542.80786,145.11845 q -19.6875,0 -29.70703,6.67968 -9.84375,6.67969 -9.84375,19.6875 0,11.95313 7.91016,18.8086 8.08593,6.67968 22.32422,6.67968 17.7539,0 29.88281,-12.65625 12.1289,-12.83203 12.1289,-31.99218 l 0,-7.20703 -32.69531,0 z m 96.15235,-23.73047 0,112.32422 -63.45704,0 0,-29.17969 q -12.65625,17.92969 -28.47656,26.1914 -15.82031,8.08594 -38.49609,8.08594 -30.58594,0 -49.7461,-17.7539 -18.98437,-17.92969 -18.98437,-46.40625 0,-34.62891 23.73047,-50.80079 23.90625,-16.17187 74.88281,-16.17187 l 37.08984,0 0,-4.92188 q 0,-14.941402 -11.77734,-21.79687 -11.77734,-7.03125 -36.73828,-7.03125 -20.21484,0 -37.61719,4.042968 -17.40234,4.042969 -32.34375,12.128907 l 0,-47.988282 q 20.21485,-4.921875 40.60547,-7.382812 20.39063,-2.636719 40.78125,-2.636719 53.26172,0 76.81641,21.09375 23.73047,20.917969 23.73047,68.203128 z" />
      <path
         id="path4927"
         style="line-height:100%;letter-spacing:1.25030553px;fill:#000000"
         d="m 805.99207,-28.72921 64.86328,0 45.35156,190.72266 45,-190.72266 65.21489,0 45,190.72266 45.3515,-190.72266 64.336,0 -61.875,262.44141 -78.0469,0 -47.63674,-199.511723 -47.10938,199.511723 -78.04687,0 -62.40234,-262.44141 z" />
      <path
         id="path4929"
         style="line-height:100%;letter-spacing:1.25030553px;fill:#000000"
         d="m 1407.887,134.74735 0,17.92969 -147.1289,0 q 2.2851,22.14844 15.9961,33.22266 13.7109,11.07421 38.3203,11.07421 19.8632,0 40.6054,-5.80078 20.918,-5.97656 42.8907,-17.92968 l 0,48.51562 q -22.3243,8.4375 -44.6485,12.65625 -22.3242,4.39453 -44.6484,4.39453 -53.4375,0 -83.1445,-27.07031 -29.5313,-27.24609 -29.5313,-76.28906 0,-48.164065 29.0039,-75.761722 29.1797,-27.597656 80.1563,-27.597656 46.4062,0 74.1796,27.949219 27.9493,27.949219 27.9493,74.707029 z m -64.6875,-20.91797 q 0,-17.929684 -10.5469,-28.828122 -10.3711,-11.074218 -27.2461,-11.074218 -18.2813,0 -29.707,10.371093 -11.4258,10.195313 -14.2383,29.531247 l 81.7383,0 z" />
      <path
         id="path4931"
         style="line-height:100%;letter-spacing:1.25030553px;fill:#000000"
         d="m 1653.1216,134.74735 0,17.92969 -147.1289,0 q 2.2851,22.14844 15.9961,33.22266 13.7109,11.07421 38.3203,11.07421 19.8633,0 40.6055,-5.80078 20.9179,-5.97656 42.8906,-17.92968 l 0,48.51562 q -22.3242,8.4375 -44.6485,12.65625 -22.3242,4.39453 -44.6484,4.39453 -53.4375,0 -83.1445,-27.07031 -29.5313,-27.24609 -29.5313,-76.28906 0,-48.164065 29.0039,-75.761722 29.1797,-27.597656 80.1563,-27.597656 46.4062,0 74.1797,27.949219 27.9492,27.949219 27.9492,74.707029 z m -64.6875,-20.91797 q 0,-17.929684 -10.5469,-28.828122 -10.3711,-11.074218 -27.2461,-11.074218 -18.2812,0 -29.707,10.371093 -11.4258,10.195313 -14.2383,29.531247 l 81.7383,0 z" />
      <path
         id="path4933"
         style="line-height:100%;letter-spacing:1.25030553px;fill:#000000"
         d="m 1701.8328,-39.803429 62.9297,0 0,148.886719 72.4218,-72.246094 73.125,0 -96.1523,90.351564 103.7109,106.52344 -76.289,0 -76.8164,-82.08985 0,82.08985 -62.9297,0 0,-273.515629 z" />
      <path
         id="path4935"
         style="line-height:100%;letter-spacing:1.25030553px;fill:#000000"
         d="m 1942.8489,-39.803429 62.9297,0 0,273.515629 -62.9297,0 0,-273.515629 z" />
      <path
         id="path4937"
         style="line-height:100%;letter-spacing:1.25030553px;fill:#000000"
         d="m 2042.0093,36.837196 62.9297,0 52.9101,133.593754 45,-133.593754 62.9297,0 -82.793,215.507814 q -12.4804,32.87109 -29.1796,45.8789 -16.5235,13.1836 -43.7696,13.1836 l -36.3867,0 0,-41.3086 19.6875,0 q 15.9961,0 23.2031,-5.09765 7.3828,-5.09766 11.4258,-18.28125 l 1.7578,-5.44922 -87.7148,-204.433594 z" />
      <path
         id="path4939"
         style="line-height:100%;letter-spacing:1.25030553px;fill:#000000"
         d="m 2560.252,238.45829 -5.2735,0 q -64.8633,0 -100.8984,-35.85938 -36.0352,-35.85937 -36.0352,-99.84375 0,-63.808589 35.8594,-100.0195266 36.0352,-36.2109374 99.1406,-36.2109374 63.8086,0 99.3164,35.8593749 35.6836,35.8593751 35.6836,100.3710891 0,44.29688 -18.9844,76.28907 -18.8085,31.99218 -54.3164,48.16406 l 52.9102,59.0625 -64.5117,0 -42.8906,-47.8125 z m -7.2071,-222.890625 q -30.9375,0 -47.9883,22.851562 -17.0507,22.851563 -17.0507,64.335933 0,42.1875 16.6992,64.6875 16.6992,22.32422 48.3398,22.32422 31.1133,0 48.1641,-22.85156 17.0508,-22.85156 17.0508,-64.16016 0,-41.48437 -17.0508,-64.335933 -17.0508,-22.851562 -48.1641,-22.851562 z" />
      <path
         id="path4941"
         style="line-height:100%;letter-spacing:1.25030553px;fill:#000000"
         d="m 2735.3501,157.07157 0,-120.234374 63.2812,0 0,19.6875 q 0,15.996094 -0.1757,40.253906 -0.1758,24.082028 -0.1758,32.167968 0,23.73047 1.2305,34.27734 1.2304,10.3711 4.2187,15.11719 3.8672,6.15235 10.0195,9.49219 6.3282,3.33984 14.4141,3.33984 19.6875,0 30.9375,-15.11718 11.25,-15.11719 11.25,-42.01172 l 0,-97.207034 62.9297,0 0,196.875004 -62.9297,0 0,-28.47657 q -14.2383,17.22657 -30.2344,25.48828 -15.8203,8.08594 -34.9804,8.08594 -34.1016,0 -52.0313,-20.91797 -17.7539,-20.91797 -17.7539,-60.82031 z" />
      <path
         id="path4943"
         style="line-height:100%;letter-spacing:1.25030553px;fill:#000000"
         d="m 2995.3503,36.837196 62.9297,0 0,196.875004 -62.9297,0 0,-196.875004 z m 0,-76.640625 62.9297,0 0,51.328125 -62.9297,0 0,-51.328125 z" />
      <path
         id="path4945"
         style="line-height:100%;letter-spacing:1.25030553px;fill:#000000"
         d="m 3110.6826,36.837196 171.7383,0 0,43.945312 -103.7109,107.929692 103.7109,0 0,45 -176.1328,0 0,-43.94532 103.7109,-107.929684 -99.3164,0 0,-45 z" />
    </g>
  </g>
</svg>
